<svg xmlns="http://www.w3.org/2000/svg" viewBox="0 0 32 32" width="32" height="32">
  <rect width="32" height="32" rx="7" fill="#3A5A40"/>
  <g transform="translate(4, 4)">
    <path d="M12.5 12.2c2.2-4.3 6.2-6 8.5-6.2-.2 2.3-1.9 6.3-6.2 8.5-1.1.6-2.4.9-3.7.9.4-1.1.8-2.2 1.4-3.2Z" fill="#9BD282" opacity="0.95"/>
    <path d="M11.5 12.2C9.3 7.9 5.3 6.2 3 6c.2 2.3 1.9 6.3 6.2 8.5 1.1.6 2.4.9 3.7.9-.4-1.1-.8-2.2-1.4-3.2Z" fill="#9BD282" opacity="0.68"/>
    <path d="M12 21c0-3.5 0-6.2 1.2-8.6" stroke="#9BD282" stroke-width="1.5" stroke-linecap="round"/>
  </g>
</svg>
